name C:\Users\u0101727\Documents\MyRepositories\upper-imu-dc\Results\main_tracking\Case_46\FLX02_orientations_groundFrame.mot
datacolumns 13
datarows 43
range 3.76000000 4.18000000
endheader 
time	radius_imu_[0][0]	radius_imu_[0][1]	radius_imu_[0][2]	radius_imu_[1][0]	radius_imu_[1][1]	radius_imu_[1][2]	radius_imu_[2][0]	radius_imu_[2][1]	radius_imu_[2][2]	radius_imu_x	radius_imu_y	radius_imu_z	
          3.76000000	          0.96504697	         -0.07840241	         -0.25007482	         -0.00708407	         -0.96165870	          0.27415754	         -0.26198124	         -0.26280336	         -0.92860122	         -2.85451119	         -0.25275753	          0.08106403	
          3.77000000	          0.96565980	         -0.07828216	         -0.24773587	         -0.00745016	         -0.96147888	          0.27477783	         -0.25970301	         -0.26349623	         -0.92904471	         -2.85402677	         -0.25034258	          0.08088910	
          3.78000000	          0.96625719	         -0.07832307	         -0.24538244	         -0.00795827	         -0.96127147	          0.27548833	         -0.25745623	         -0.26423976	         -0.92945879	         -2.85344509	         -0.24791418	          0.08088137	
          3.79000000	          0.96683406	         -0.07853246	         -0.24303201	         -0.00861044	         -0.96103539	          0.27629121	         -0.25526019	         -0.26503513	         -0.92983795	         -2.85276261	         -0.24549035	          0.08104848	
          3.80000000	          0.96738468	         -0.07891850	         -0.24070469	         -0.00940888	         -0.96076959	          0.27718815	         -0.25313702	         -0.26588281	         -0.93017632	         -2.85197607	         -0.24309182	          0.08139897	
          3.81000000	          0.96790297	         -0.07949008	         -0.23842225	         -0.01035606	         -0.96047300	          0.27818045	         -0.25111072	         -0.26678257	         -0.93046788	         -2.85108259	         -0.24074093	          0.08194218	
          3.82000000	          0.96838277	         -0.08025669	         -0.23620686	         -0.01145492	         -0.96014455	          0.27926909	         -0.24920594	         -0.26773364	         -0.93070677	         -2.85007962	         -0.23846038	          0.08268806	
          3.83000000	          0.96881817	         -0.08122812	         -0.23407981	         -0.01270883	         -0.95978307	          0.28045488	         -0.24744666	         -0.26873490	         -0.93088759	         -2.84896485	         -0.23627197	          0.08364684	
          3.84000000	          0.96920377	         -0.08241413	         -0.23206026	         -0.01412163	         -0.95938728	          0.28173859	         -0.24585490	         -0.26978503	         -0.93100559	         -2.84773621	         -0.23419523	          0.08482876	
          3.85000000	          0.96953492	         -0.08382411	         -0.23016417	         -0.01569752	         -0.95895571	          0.28312105	         -0.24444962	         -0.27088274	         -0.93105689	         -2.84639178	         -0.23224638	          0.08624360	
          3.86000000	          0.96980784	         -0.08546674	         -0.22840356	         -0.01744093	         -0.95848674	          0.28460321	         -0.24324589	         -0.27202685	         -0.93103857	         -2.84492975	         -0.23043758	          0.08790041	
          3.87000000	          0.97001959	         -0.08734971	         -0.22678629	         -0.01935637	         -0.95797852	          0.28618611	         -0.24225467	         -0.27321638	         -0.93094870	         -2.84334852	         -0.22877672	          0.08980720	
          3.88000000	          0.97016800	         -0.08947962	         -0.22531633	         -0.02144824	         -0.95742905	          0.28787079	         -0.24148297	         -0.27445039	         -0.93078621	         -2.84164671	         -0.22726770	          0.09197086	
          3.89000000	          0.97025147	         -0.09186184	         -0.22399441	         -0.02372060	         -0.95683621	          0.28965806	         -0.24093448	         -0.27572788	         -0.93055076	         -2.83982333	         -0.22591111	          0.09439699	
          3.90000000	          0.97026873	         -0.09450054	         -0.22281885	         -0.02617703	         -0.95619786	          0.29154831	         -0.24061038	         -0.27704747	         -0.93024263	         -2.83787801	         -0.22470506	          0.09709002	
          3.91000000	          0.97021867	         -0.09739870	         -0.22178644	         -0.02882047	         -0.95551187	          0.29354122	         -0.24051011	         -0.27840718	         -0.92986253	         -2.83581117	         -0.22364616	          0.10005320	
          3.92000000	          0.97010010	         -0.10055821	         -0.22089328	         -0.03165311	         -0.95477626	          0.29563554	         -0.24063224	         -0.27980411	         -0.92941153	         -2.83362420	         -0.22273028	          0.10328867	
          3.93000000	          0.96991161	         -0.10397981	         -0.22013556	         -0.03467624	         -0.95398925	          0.29782892	         -0.24097515	         -0.28123425	         -0.92889088	         -2.83131966	         -0.22195344	          0.10679756	
          3.94000000	          0.96965143	         -0.10766320	         -0.21951025	         -0.03789009	         -0.95314934	          0.30011776	         -0.24153769	         -0.28269235	         -0.92830199	         -2.82890133	         -0.22131245	          0.11057995	
          3.95000000	          0.96931732	         -0.11160690	         -0.21901562	         -0.04129364	         -0.95225534	          0.30249727	         -0.24231958	         -0.28417189	         -0.92764625	         -2.82637413	         -0.22080548	          0.11463489	
          3.96000000	          0.96890659	         -0.11580821	         -0.21865152	         -0.04488440	         -0.95130640	          0.30496152	         -0.24332164	         -0.28566519	         -0.92692501	         -2.82374405	         -0.22043234	          0.11896028	
          3.97000000	          0.96841613	         -0.12026310	         -0.21841931	         -0.04865832	         -0.95030196	          0.30750374	         -0.24454565	         -0.28716366	         -0.92613954	         -2.82101787	         -0.22019438	          0.12355280	
          3.98000000	          0.96784253	         -0.12496613	         -0.21832155	         -0.05260974	         -0.94924178	          0.31011654	         -0.24599400	         -0.28865813	         -0.92529100	         -2.81820288	         -0.22009420	          0.12840780	
          3.99000000	          0.96718229	         -0.12991041	         -0.21836139	         -0.05673144	         -0.94812578	          0.31279234	         -0.24766905	         -0.29013926	         -0.92438047	         -2.81530653	         -0.22013502	          0.13351930	
          4.00000000	          0.96643196	         -0.13508769	         -0.21854195	         -0.06101480	         -0.94695404	          0.31552377	         -0.24957256	         -0.29159796	         -0.92340899	         -2.81233602	         -0.22032005	          0.13887999	
          4.01000000	          0.96558834	         -0.14048841	         -0.21886563	         -0.06545007	         -0.94572663	          0.31830400	         -0.25170508	         -0.29302586	         -0.92237758	         -2.80929797	         -0.22065177	          0.14448133	
          4.02000000	          0.96464861	         -0.14610199	         -0.21933369	         -0.07002662	         -0.94444356	          0.32112714	         -0.25406560	         -0.29441565	         -0.92128720	         -2.80619809	         -0.22113147	          0.15031377	
          4.03000000	          0.96361043	         -0.15191698	         -0.21994583	         -0.07473322	         -0.94310469	          0.32398840	         -0.25665129	         -0.29576134	         -0.92013876	         -2.80304094	         -0.22175894	          0.15636693	
          4.04000000	          0.96247198	         -0.15792135	         -0.22070012	         -0.07955832	         -0.94170968	          0.32688432	         -0.25945745	         -0.29705847	         -0.91893313	         -2.79982980	         -0.22253223	          0.16262980	
          4.05000000	          0.96123201	         -0.16410268	         -0.22159273	         -0.08449027	         -0.94025795	          0.32981266	         -0.26247747	         -0.29830405	         -0.91767111	         -2.79656673	         -0.22344751	          0.16909101	
          4.06000000	          0.95988993	         -0.17044830	         -0.22261784	         -0.08951762	         -0.93874873	          0.33277232	         -0.26570269	         -0.29949658	         -0.91635358	         -2.79325270	         -0.22449887	          0.17573885	
          4.07000000	          0.95844587	         -0.17694541	         -0.22376738	         -0.09462930	         -0.93718111	          0.33576311	         -0.26912230	         -0.30063581	         -0.91498158	         -2.78988790	         -0.22567816	          0.18256142	
          4.08000000	          0.95690077	         -0.18358111	         -0.22503088	         -0.09981483	         -0.93555409	          0.33878539	         -0.27272315	         -0.30172258	         -0.91355655	         -2.78647209	         -0.22697473	          0.18954657	
          4.09000000	          0.95525644	         -0.19034242	         -0.22639543	         -0.10506443	         -0.93386670	          0.34183982	         -0.27648977	         -0.30275858	         -0.91208040	         -2.78300495	         -0.22837542	          0.19668193	
          4.10000000	          0.95351560	         -0.19721631	         -0.22784586	         -0.11036912	         -0.93211801	          0.34492706	         -0.28040447	         -0.30374619	         -0.91055565	         -2.77948640	         -0.22986477	          0.20395484	
          4.11000000	          0.95168176	         -0.20418975	         -0.22936517	         -0.11572063	         -0.93030726	          0.34804760	         -0.28444783	         -0.30468827	         -0.90898542	         -2.77591681	         -0.23142541	          0.21135246	
          4.12000000	          0.94975917	         -0.21124982	         -0.23093513	         -0.12111144	         -0.92843387	          0.35120160	         -0.28859927	         -0.30558806	         -0.90737335	         -2.77229704	         -0.23303868	          0.21886181	
          4.13000000	          0.94775263	         -0.21838385	         -0.23253698	         -0.12653466	         -0.92649744	          0.35438888	         -0.29283772	         -0.30644901	         -0.90572351	         -2.76862855	         -0.23468535	          0.22646994	
          4.14000000	          0.94566730	         -0.22557964	         -0.23415205	         -0.13198408	         -0.92449776	          0.35760887	         -0.29714232	         -0.30727467	         -0.90404022	         -2.76491329	         -0.23634627	          0.23416420	
          4.15000000	          0.94350851	         -0.23282567	         -0.23576237	         -0.13745412	         -0.92243480	          0.36086065	         -0.30149304	         -0.30806859	         -0.90232793	         -2.76115365	         -0.23800298	          0.24193244	
          4.16000000	          0.94128157	         -0.24011132	         -0.23735114	         -0.14293997	         -0.92030865	          0.36414303	         -0.30587117	         -0.30883416	         -0.90059108	         -2.75735238	         -0.23963816	          0.24976329	
          4.17000000	          0.93899156	         -0.24742710	         -0.23890307	         -0.14843756	         -0.91811950	          0.36745458	         -0.31025978	         -0.30957456	         -0.89883394	         -2.75351243	         -0.24123605	          0.25764644	
          4.18000000	          0.93664324	         -0.25476472	         -0.24040463	         -0.15394360	         -0.91586758	          0.37079367	         -0.31464395	         -0.31029263	         -0.89706057	         -2.74963690	         -0.24278268	          0.26557277	
